<?xml version="1.0" encoding="utf-8"?>
<svg version="1.1"
	 xmlns="http://www.w3.org/2000/svg" xmlns:xlink="http://www.w3.org/1999/xlink" x="0px" y="0px" viewBox="0 0 424 612"
	 style="enable-background:new 0 0 424 612;" xml:space="preserve">
<g>
	<path class="check" d="M80.6,167.8v75.9c0,4.5,3.7,8.2,8.2,8.2h75.9c4.5,0,8.2-3.7,8.2-8.2v-75.9c0-4.5-3.7-8.2-8.2-8.2H88.9
		C84.3,159.6,80.6,163.2,80.6,167.8z M97.1,176h59.5v59.5H97.1V176z M164.8,279.3H88.9c-4.5,0-8.2,3.7-8.2,8.2v75.9
		c0,4.5,3.7,8.2,8.2,8.2h75.9c4.5,0,8.2-3.7,8.2-8.2v-75.9C173,283,169.3,279.3,164.8,279.3z M156.6,355.2H97.1v-59.5h59.5V355.2z
		 M164.8,399.1H88.9c-4.5,0-8.2,3.7-8.2,8.2v75.9c0,4.5,3.7,8.2,8.2,8.2h75.9c4.5,0,8.2-3.7,8.2-8.2v-75.9
		C173,402.8,169.3,399.1,164.8,399.1z M156.6,475H97.1v-59.5h59.5V475z M233.3,213.9h86.5c4.5,0,8.2-3.7,8.2-8.2
		c0-4.5-3.7-8.2-8.2-8.2h-86.5c-4.5,0-8.2,3.7-8.2,8.2C225.1,210.2,228.8,213.9,233.3,213.9z M201.6,213.9h9.8
		c4.5,0,8.2-3.7,8.2-8.2c0-4.5-3.7-8.2-8.2-8.2h-9.8c-4.5,0-8.2,3.7-8.2,8.2C193.4,210.2,197,213.9,201.6,213.9z M319.8,317.3
		h-39.4c-4.5,0-8.2,3.7-8.2,8.2c0,4.5,3.7,8.2,8.2,8.2h39.4c4.5,0,8.2-3.7,8.2-8.2C328,320.9,324.3,317.3,319.8,317.3z
		 M201.6,333.7h54.7c4.5,0,8.2-3.7,8.2-8.2c0-4.5-3.7-8.2-8.2-8.2h-54.7c-4.5,0-8.2,3.7-8.2,8.2C193.4,330,197,333.7,201.6,333.7z
		 M201.6,453.4h118.2c4.5,0,8.2-3.7,8.2-8.2c0-4.5-3.7-8.2-8.2-8.2H201.6c-4.5,0-8.2,3.7-8.2,8.2
		C193.4,449.8,197,453.4,201.6,453.4z M144.8,180.5c-4.1-1.8-9,0-10.8,4.1l-10.5,23.6l-6.9-9c-2.7-3.6-7.9-4.3-11.5-1.6
		c-3.6,2.7-4.3,7.9-1.6,11.5l15.2,20c1.6,2,4,3.2,6.5,3.2c0.3,0,0.6,0,0.9-0.1c2.9-0.3,5.4-2.2,6.5-4.8l16.2-36.2
		C150.8,187.2,148.9,182.3,144.8,180.5z M118.7,349.1c1.6,2,4,3.2,6.5,3.2c0.3,0,0.6,0,0.9-0.1c2.9-0.3,5.4-2.2,6.5-4.8l16.2-36.2
		c1.9-4.1,0-9-4.1-10.8c-4.1-1.8-9,0-10.8,4.1l-10.5,23.6l-6.9-9c-2.7-3.6-7.9-4.3-11.5-1.6c-3.6,2.7-4.3,7.9-1.6,11.5L118.7,349.1
		z M424,552.1v-28.9v-42.6v-401c0-17.6-14.3-31.9-31.9-31.9h-88.4V34.7c0-4.5-3.7-8.2-8.2-8.2H263C252.6,9,233.4-2,212.8-2
		c-20.5,0-39.7,11-50.2,28.4h-32.4c-4.5,0-8.2,3.7-8.2,8.2v12.9H31.9C14.3,47.6,0,61.9,0,79.5V117c0,0.1,0,0.1,0,0.2v65v12v384
		C0,595.7,14.3,610,31.9,610h360.1c17.6,0,31.9-14.3,31.9-31.9L424,552.1C424,552.1,424,552.1,424,552.1z M138.4,42.9h29.1
		c3.1,0,6-1.8,7.4-4.6c7-14.5,21.9-23.8,38-23.8c16.1,0,31,9.3,38,23.8c1.4,2.8,4.2,4.6,7.4,4.6h29.1v72.2h-4.5
		c-0.3,0-0.7-0.1-1-0.1h-86.5c-0.3,0-0.7,0-1,0.1h-55.9V42.9z M130.2,131.5h93.6c0.3,0,0.7,0,1-0.1H254c0.3,0,0.7,0.1,1,0.1h40.5
		c4.5,0,8.2-3.7,8.2-8.2v-9.9h59.6v407.2H61.8V113.3H122v9.9C122,127.8,125.7,131.5,130.2,131.5z M407.6,552.1
		C407.6,552.1,407.6,552.1,407.6,552.1l0,26c0,8.5-7,15.5-15.5,15.5H31.9c-8.6,0-15.5-7-15.5-15.5v-396c0-0.1,0-0.1,0-0.2v-74.3
		c0,0,0,0,0,0V79.5c0-8.6,7-15.5,15.5-15.5H122v32.9H53.6c-4.5,0-8.2,3.7-8.2,8.2v423.6c0,4.5,3.7,8.2,8.2,8.2h317.9
		c4.5,0,8.2-3.7,8.2-8.2V105.1c0-4.5-3.7-8.2-8.2-8.2h-67.8V64h88.4c8.5,0,15.5,7,15.5,15.5v443.6c0,0.1,0,0.1,0,0.2V552.1z
		 M212.5,63.9c8.8,0,16-7.2,16-16c0-8.8-7.2-16-16-16c-8.8,0-16,7.2-16,16C196.5,56.7,203.7,63.9,212.5,63.9z M118.7,469.1
		c1.6,2,4,3.2,6.5,3.2c0.3,0,0.6,0,0.9-0.1c2.9-0.3,5.4-2.2,6.5-4.8l16.2-36.2c1.9-4.1,0-9-4.1-10.8c-4.1-1.8-9,0-10.8,4.1
		l-10.5,23.6l-6.9-9c-2.7-3.6-7.9-4.3-11.5-1.6c-3.6,2.7-4.3,7.9-1.6,11.5L118.7,469.1z"/>
	</g>
</svg>
